# Blender v2.90.1 OBJ File: 'arrow.blend'
# www.blender.org
mtllib arrow.mtl
o Tip_Cylinder
v 0.072905 -0.109109 0.663880
v 0.072905 0.109109 0.663880
v -0.000000 0.181016 0.387869
v -0.072905 0.109109 0.663880
v 0.000000 -0.000000 -0.387869
v -0.072904 -0.109110 0.663880
v 0.000000 -0.181016 0.387869
vt 0.500000 1.000000
vt 0.906250 0.500000
vt 0.500000 0.500000
vt 0.593750 0.500000
vt 0.500000 0.500000
vt 0.406250 0.500000
vt 0.093750 0.500000
vn 0.8765 -0.4688 -0.1094
vn 0.9976 0.0000 -0.0692
vn 0.8765 0.4688 -0.1094
vn -0.8765 0.4688 -0.1094
vn -0.9976 -0.0000 -0.0692
vn -0.8765 -0.4688 -0.1094
vn 0.0000 -0.9677 0.2521
vn -0.0000 0.9677 0.2521
vn 0.0000 0.0000 1.0000
usemtl None
s off
f 5/1/1 1/2/1 7/3/1
f 5/1/2 2/4/2 1/2/2
f 5/1/3 3/5/3 2/4/3
f 5/1/4 4/6/4 3/5/4
f 5/1/5 6/7/5 4/6/5
f 5/1/6 7/3/6 6/7/6
f 7/3/7 1/2/7 6/7/7
f 2/4/8 3/5/8 4/6/8
f 1/2/9 2/4/9 4/6/9 6/7/9
o Shaft_Cube.001
v -0.050000 -0.050000 10.629362
v -0.050000 0.050000 10.629362
v -0.050000 -0.050000 0.629363
v -0.050000 0.050000 0.629363
v 0.050000 -0.050000 10.629362
v 0.050000 0.050000 10.629362
v 0.050000 -0.050000 0.629363
v 0.050000 0.050000 0.629363
vt 0.257993 -6.996126
vt 0.742645 -6.996126
vt 0.742645 7.923032
vt 0.257993 7.923032
vt 0.375000 0.250000
vt 0.625000 0.250000
vt 0.625000 0.500000
vt 0.375000 0.500000
vt 0.261808 -6.845189
vt 0.741315 -6.845189
vt 0.741315 7.915590
vt 0.261808 7.915590
vt 0.375000 0.750000
vt 0.625000 0.750000
vt 0.625000 1.000000
vt 0.375000 1.000000
vt 0.257639 -6.830074
vt 0.739894 -6.830074
vt 0.739894 8.015277
vt 0.257639 8.015277
vt 0.256624 -7.014339
vt 0.744635 -7.014339
vt 0.744635 8.008207
vt 0.256624 8.008207
vn -1.0000 0.0000 0.0000
vn 0.0000 0.0000 -1.0000
vn 1.0000 0.0000 0.0000
vn 0.0000 0.0000 1.0000
vn 0.0000 -1.0000 0.0000
vn 0.0000 1.0000 0.0000
usemtl Material.001
s off
f 8/8/10 9/9/10 11/10/10 10/11/10
f 10/12/11 11/13/11 15/14/11 14/15/11
f 14/16/12 15/17/12 13/18/12 12/19/12
f 12/20/13 13/21/13 9/22/13 8/23/13
f 10/24/14 14/25/14 12/26/14 8/27/14
f 15/28/15 11/29/15 9/30/15 13/31/15
o Fletch1_Cylinder.002
v 0.022854 -0.087833 10.291868
v 0.022854 0.087833 10.291868
v -0.000000 0.253324 10.174754
v -0.022854 0.087833 10.291868
v 0.000000 -0.000000 9.296154
v -0.022854 -0.087833 10.291868
v 0.000000 -0.253324 10.174754
vt 0.500000 1.000000
vt 0.906250 0.500000
vt 0.500000 0.500000
vt 0.593750 0.500000
vt 0.500000 0.500000
vt 0.406250 0.500000
vt 0.093750 0.500000
vn 0.9930 -0.1139 -0.0328
vn 0.9997 0.0000 -0.0229
vn 0.9930 0.1139 -0.0328
vn -0.9930 0.1139 -0.0328
vn -0.9997 -0.0000 -0.0229
vn -0.9930 -0.1139 -0.0328
vn 0.0000 -0.5777 0.8163
vn 0.0000 0.5777 0.8163
vn -0.0000 0.0000 1.0000
usemtl None
s off
f 20/32/16 16/33/16 22/34/16
f 20/32/17 17/35/17 16/33/17
f 20/32/18 18/36/18 17/35/18
f 20/32/19 19/37/19 18/36/19
f 20/32/20 21/38/20 19/37/20
f 20/32/21 22/34/21 21/38/21
f 22/34/22 16/33/22 21/38/22
f 17/35/23 18/36/23 19/37/23
f 16/33/24 17/35/24 19/37/24 21/38/24
o Fletch2_Cylinder.003
v -0.087833 -0.022854 10.291868
v 0.087833 -0.022854 10.291868
v 0.253324 0.000000 10.174754
v 0.087833 0.022854 10.291868
v -0.000000 -0.000000 9.296154
v -0.087833 0.022854 10.291868
v -0.253324 -0.000000 10.174754
vt 0.500000 1.000000
vt 0.906250 0.500000
vt 0.500000 0.500000
vt 0.593750 0.500000
vt 0.500000 0.500000
vt 0.406250 0.500000
vt 0.093750 0.500000
vn -0.1139 -0.9930 -0.0328
vn -0.0000 -0.9997 -0.0229
vn 0.1139 -0.9930 -0.0328
vn 0.1139 0.9930 -0.0328
vn -0.0000 0.9997 -0.0229
vn -0.1139 0.9930 -0.0328
vn -0.5777 -0.0000 0.8163
vn 0.5777 0.0000 0.8163
vn 0.0000 0.0000 1.0000
usemtl None
s off
f 27/39/25 23/40/25 29/41/25
f 27/39/26 24/42/26 23/40/26
f 27/39/27 25/43/27 24/42/27
f 27/39/28 26/44/28 25/43/28
f 27/39/29 28/45/29 26/44/29
f 27/39/30 29/41/30 28/45/30
f 29/41/31 23/40/31 28/45/31
f 24/42/32 25/43/32 26/44/32
f 23/40/33 24/42/33 26/44/33 28/45/33
