# Blender v2.90.1 OBJ File: 'bow.blend'
# www.blender.org
v -0.000134 -1.438015 0.597428
v 0.000000 1.438015 0.597249
v -0.009069 -1.438015 0.594117
v -0.009069 1.438015 0.594117
v -0.012769 -1.438015 0.586121
v -0.012769 1.438015 0.586121
v -0.009069 -1.438015 0.578125
v -0.009069 1.438015 0.578125
v -0.000134 -1.438015 0.574814
v -0.000134 1.438015 0.574814
v 0.008800 -1.438015 0.578125
v 0.008800 1.438015 0.578125
v 0.012501 -1.438015 0.586121
v 0.012501 1.438015 0.586121
v 0.008800 -1.438015 0.594117
v 0.008624 1.438015 0.594115
v 0.000000 0.000000 0.052950
v -0.033626 0.000000 0.037486
v -0.047554 0.000000 0.000154
v -0.033626 0.000000 -0.037179
v 0.000000 0.000000 -0.052642
v 0.033626 0.000000 -0.037179
v 0.047554 0.000000 0.000154
v 0.033626 0.000000 0.037486
v 0.000000 1.000000 0.293176
v -0.023396 -1.000000 0.282276
v -0.033087 -1.000000 0.255962
v -0.023396 -1.000000 0.229648
v 0.000000 -1.000000 0.218748
v 0.023396 -1.000000 0.229648
v 0.033087 -1.000000 0.255962
v 0.023396 -1.000000 0.282276
v 0.000000 -1.000000 0.293176
v -0.023396 1.000000 0.282276
v -0.033087 1.000000 0.255962
v -0.023396 1.000000 0.229648
v 0.000000 1.000000 0.218748
v 0.023396 1.000000 0.229648
v 0.033087 1.000000 0.255962
v 0.023396 1.000000 0.282276
v 0.000000 1.334752 0.635769
v -0.014267 -1.334752 0.628138
v -0.020177 -1.334752 0.609716
v -0.014267 -1.334752 0.591293
v 0.000000 -1.334752 0.583662
v 0.014268 -1.334752 0.591293
v 0.020177 -1.334752 0.609716
v 0.014268 -1.334752 0.628138
v 0.000000 -0.500000 0.109868
v -0.033626 0.500000 0.094405
v -0.047554 0.500000 0.057072
v -0.033626 0.500000 0.019740
v 0.000000 0.500000 0.004276
v 0.033626 0.500000 0.019740
v 0.047554 0.500000 0.057072
v 0.033626 0.500000 0.094405
v 0.000000 0.500000 0.109868
v -0.033626 -0.500000 0.094405
v -0.047554 -0.500000 0.057072
v -0.033626 -0.500000 0.019740
v 0.000000 -0.500000 0.004276
v 0.033626 -0.500000 0.019740
v 0.047554 -0.500000 0.057072
v 0.033626 -0.500000 0.094405
v 0.000000 -1.334752 0.635769
v -0.014267 1.334752 0.628138
v -0.020177 1.334752 0.609716
v -0.014267 1.334752 0.591293
v 0.000000 1.334752 0.583662
v 0.014268 1.334752 0.591293
v 0.020177 1.334752 0.609716
v 0.014268 1.334752 0.628138
vt 0.617983 0.010143
vt 0.744971 0.004701
vt 0.790451 0.993506
vt 0.647979 0.991855
vt 0.873108 0.007758
vt 0.896858 0.990867
vt 0.990868 0.004789
vt 0.992986 0.989445
vt 0.004337 0.002421
vt 0.119871 0.007269
vt 0.115838 0.994157
vt 0.009586 0.994812
vt 0.257442 0.004437
vt 0.251208 0.994901
vt 0.385291 0.007146
vt 0.376985 0.993432
vt 0.514619 0.005922
vt 0.503978 0.993993
vt 0.502169 0.979185
vt 0.168100 0.907570
vt 0.014793 0.719585
vt 0.153667 0.529330
vt 0.496603 0.448348
vt 0.842712 0.524077
vt 0.989249 0.712156
vt 0.850374 0.902410
vt 0.500313 0.003919
vt 0.840516 0.083332
vt 0.981250 0.274739
vt 0.840073 0.466018
vt 0.499687 0.545119
vt 0.159483 0.465707
vt 0.018750 0.274299
vt 0.159927 0.083021
vt 0.378759 0.995683
vt 0.376252 0.004741
vt 0.500001 0.004054
vt 0.507545 0.992331
vt 0.267910 0.985470
vt 0.265403 0.007131
vt 0.141948 0.989120
vt 0.129365 0.004480
vt 0.008123 0.994289
vt 0.008135 0.004608
vt 0.875694 0.990394
vt 0.870668 0.005754
vt 0.989385 0.002109
vt 0.989373 0.991790
vt 0.762313 0.989261
vt 0.744693 0.003361
vt 0.638856 0.990648
vt 0.616199 0.006008
vt 0.609120 0.007359
vt 0.736904 0.005912
vt 0.779651 0.991443
vt 0.639789 0.993830
vt 0.865216 0.006261
vt 0.893468 0.990791
vt 0.980697 0.005832
vt 0.991837 0.990281
vt 0.015293 0.007134
vt 0.119220 0.007040
vt 0.124778 0.990624
vt 0.010159 0.991690
vt 0.229371 0.007814
vt 0.258460 0.991200
vt 0.349095 0.006653
vt 0.377558 0.991647
vt 0.485788 0.005573
vt 0.499031 0.994322
vt 0.406886 0.990671
vt 0.372130 0.008466
vt 0.502480 0.008183
vt 0.530883 0.992751
vt 0.270311 0.986386
vt 0.256700 0.006402
vt 0.623489 0.010284
vt 0.648584 0.991826
vt 0.752249 0.007352
vt 0.767012 0.994497
vt 0.870757 0.007220
vt 0.885134 0.988657
vt 0.978515 0.005605
vt 0.980000 0.986354
vt 0.124090 0.009943
vt 0.139274 0.985132
vt 0.018370 0.991833
vt 0.010098 0.002838
vt 0.372304 0.992548
vt 0.226104 0.988892
vt 0.264555 0.003243
vt 0.388086 0.006900
vt 0.115167 0.990276
vt 0.115835 0.008409
vt 0.013564 0.992984
vt 0.016751 0.012377
vt 0.986427 0.989726
vt 0.883148 0.994338
vt 0.861146 0.006170
vt 0.982057 0.002818
vt 0.779285 0.993564
vt 0.742170 0.006656
vt 0.647714 0.991529
vt 0.628231 0.004621
vt 0.516728 0.996141
vt 0.507320 0.002932
vt 0.523826 0.011956
vt 0.636067 0.004137
vt 0.657739 0.992842
vt 0.518965 0.992779
vt 0.778031 0.010649
vt 0.775854 0.993427
vt 0.637676 0.010994
vt 0.678187 0.983945
vt 0.535603 0.987778
vt 0.517137 0.007233
vt 0.773425 0.000129
vt 0.776286 0.993324
vt 0.880856 0.008116
vt 0.878612 0.986543
vt 0.988953 0.005238
vt 0.983116 0.987767
vt 0.134894 0.009401
vt 0.142620 0.989673
vt 0.019511 0.992717
vt 0.007150 0.001941
vt 0.257924 0.006479
vt 0.251881 0.988859
vt 0.392186 0.007621
vt 0.394456 0.990145
vt 0.881836 0.005045
vt 0.875890 0.993208
vt 0.982919 0.004932
vt 0.989014 0.990690
vt 0.011901 0.013541
vt 0.125039 0.007028
vt 0.132513 0.986915
vt 0.009697 0.990048
vt 0.249697 0.011891
vt 0.264014 0.984978
vt 0.379645 0.005772
vt 0.380759 0.987185
vt 0.391736 0.995706
vt 0.384834 0.005900
vt 0.511696 0.005253
vt 0.521804 0.996129
vt 0.276145 0.994918
vt 0.260733 0.006922
vt 0.613527 0.004810
vt 0.636869 0.994550
vt 0.768179 0.003455
vt 0.765375 0.996670
vt 0.889541 0.005563
vt 0.883768 0.994029
vt 0.987933 0.002176
vt 0.979827 0.996256
vt 0.119522 0.006354
vt 0.130265 0.994698
vt 0.011546 0.995539
vt 0.006012 0.001508
vn -0.9290 0.1510 0.3379
vn -0.9397 -0.0035 -0.3419
vn -0.4250 -0.0856 -0.9011
vn 0.4250 -0.0845 -0.9012
vn 0.9397 -0.0010 -0.3419
vn 0.9263 0.1555 0.3432
vn 0.4042 0.3129 0.8595
vn 0.0000 1.0000 0.0000
vn 0.0000 -1.0000 0.0000
vn -0.3978 0.3129 0.8625
vn 0.4156 0.1029 0.9037
vn 0.9362 0.0398 0.3493
vn 0.9362 -0.0398 -0.3493
vn 0.4156 -0.1029 -0.9037
vn -0.4156 -0.1029 -0.9037
vn -0.9362 -0.0398 -0.3493
vn -0.9362 0.0398 0.3493
vn -0.9011 0.2987 0.3142
vn -0.8818 -0.3576 -0.3075
vn -0.3153 -0.6998 -0.6409
vn 0.3153 -0.6998 -0.6409
vn 0.8818 -0.3576 -0.3075
vn 0.9011 0.2987 0.3142
vn 0.3254 0.6757 0.6614
vn -0.3982 -0.3156 0.8613
vn -0.9318 -0.1107 0.3458
vn -0.4156 0.1029 0.9037
vn 0.3982 -0.3156 0.8613
vn 0.9318 -0.1107 0.3458
vn 0.9250 0.1632 -0.3433
vn 0.3910 0.3629 -0.8458
vn -0.3910 0.3629 -0.8458
vn -0.9250 0.1632 -0.3433
vn -0.9362 -0.0398 0.3493
vn -0.9362 0.0398 -0.3493
vn -0.4156 0.1029 -0.9037
vn 0.4156 0.1029 -0.9037
vn 0.9362 0.0398 -0.3493
vn 0.9362 -0.0398 0.3493
vn 0.4156 -0.1029 0.9037
vn -0.3982 0.3156 0.8613
vn -0.9318 0.1107 0.3458
vn -0.4156 -0.1029 0.9037
vn 0.4053 -0.3121 0.8593
vn 0.9286 -0.1533 0.3378
vn 0.9397 0.0010 -0.3419
vn 0.4250 0.0845 -0.9012
vn -0.4250 0.0856 -0.9011
vn -0.9397 0.0035 -0.3419
vn -0.9290 -0.1510 0.3379
vn -0.9250 -0.1632 -0.3433
vn -0.3910 -0.3629 -0.8458
vn 0.3910 -0.3629 -0.8458
vn 0.9250 -0.1632 -0.3433
vn 0.9318 0.1107 0.3458
vn 0.3982 0.3156 0.8613
vn -0.3254 -0.6757 0.6614
vn -0.9011 -0.2987 0.3142
vn -0.3254 0.6757 0.6614
vn 0.3254 -0.6757 0.6614
vn 0.9011 -0.2987 0.3142
vn 0.8818 0.3576 -0.3075
vn 0.3153 0.6998 -0.6409
vn -0.3153 0.6998 -0.6409
vn -0.8818 0.3576 -0.3075
vn -0.4054 -0.3111 0.8596
s off
f 4/1/1 6/2/1 67/3/1 66/4/1
f 6/2/2 8/5/2 68/6/2 67/3/2
f 8/5/3 10/7/3 69/8/3 68/6/3
f 10/9/4 12/10/4 70/11/4 69/12/4
f 12/10/5 14/13/5 71/14/5 70/11/5
f 14/13/6 16/15/6 72/16/6 71/14/6
f 16/15/7 2/17/7 41/18/7 72/16/7
f 2/19/8 16/20/8 14/21/8 12/22/8 10/23/8 8/24/8 6/25/8 4/26/8
f 1/27/9 3/28/9 5/29/9 7/30/9 9/31/9 11/32/9 13/33/9 15/34/9
f 2/17/10 4/1/10 66/4/10 41/18/10
f 64/35/11 24/36/11 17/37/11 49/38/11
f 63/39/12 23/40/12 24/36/12 64/35/12
f 62/41/13 22/42/13 23/40/13 63/39/13
f 61/43/14 21/44/14 22/42/14 62/41/14
f 60/45/15 20/46/15 21/47/15 61/48/15
f 59/49/16 19/50/16 20/46/16 60/45/16
f 58/51/17 18/52/17 19/50/17 59/49/17
f 26/53/18 27/54/18 43/55/18 42/56/18
f 27/54/19 28/57/19 44/58/19 43/55/19
f 28/57/20 29/59/20 45/60/20 44/58/20
f 29/61/21 30/62/21 46/63/21 45/64/21
f 30/62/22 31/65/22 47/66/22 46/63/22
f 31/65/23 32/67/23 48/68/23 47/66/23
f 32/67/24 33/69/24 65/70/24 48/68/24
f 34/71/25 50/72/25 57/73/25 25/74/25
f 50/72/26 34/71/26 35/75/26 51/76/26
f 49/38/27 17/37/27 18/52/27 58/51/27
f 56/77/28 40/78/28 25/74/28 57/73/28
f 55/79/29 39/80/29 40/78/29 56/77/29
f 54/81/30 38/82/30 39/80/30 55/79/30
f 53/83/31 37/84/31 38/82/31 54/81/31
f 52/85/32 36/86/32 37/87/32 53/88/32
f 51/76/33 35/75/33 36/86/33 52/85/33
f 50/89/34 51/90/34 19/91/34 18/92/34
f 51/90/35 52/93/35 20/94/35 19/91/35
f 52/93/36 53/95/36 21/96/36 20/94/36
f 53/97/37 54/98/37 22/99/37 21/100/37
f 54/98/38 55/101/38 23/102/38 22/99/38
f 55/101/39 56/103/39 24/104/39 23/102/39
f 56/103/40 57/105/40 17/106/40 24/104/40
f 49/107/41 58/108/41 26/109/41 33/110/41
f 58/108/42 59/111/42 27/112/42 26/109/42
f 57/105/43 50/89/43 18/92/43 17/106/43
f 15/113/44 48/114/44 65/115/44 1/116/44
f 13/117/45 47/118/45 48/114/45 15/113/45
f 11/119/46 46/120/46 47/118/46 13/117/46
f 9/121/47 45/122/47 46/120/47 11/119/47
f 7/123/48 44/124/48 45/125/48 9/126/48
f 5/127/49 43/128/49 44/124/49 7/123/49
f 3/129/50 42/130/50 43/128/50 5/127/50
f 59/111/51 60/131/51 28/132/51 27/112/51
f 60/131/52 61/133/52 29/134/52 28/132/52
f 61/135/53 62/136/53 30/137/53 29/138/53
f 62/136/54 63/139/54 31/140/54 30/137/54
f 63/139/55 64/141/55 32/142/55 31/140/55
f 64/141/56 49/107/56 33/110/56 32/142/56
f 66/143/57 34/144/57 25/145/57 41/146/57
f 34/144/58 66/143/58 67/147/58 35/148/58
f 33/69/59 26/53/59 42/56/59 65/70/59
f 40/149/60 72/150/60 41/146/60 25/145/60
f 39/151/61 71/152/61 72/150/61 40/149/61
f 38/153/62 70/154/62 71/152/62 39/151/62
f 37/155/63 69/156/63 70/154/63 38/153/63
f 36/157/64 68/158/64 69/159/64 37/160/64
f 35/148/65 67/147/65 68/158/65 36/157/65
f 1/116/66 65/115/66 42/130/66 3/129/66
